<?xml version="1.0" encoding="UTF-8" standalone="no"?>
<!-- Uploaded to: SVG Repo, www.svgrepo.com, Generator: SVG Repo Mixer Tools -->

<svg
   fill="#0600c2"
   height="800"
   width="800"
   version="1.1"
   id="Capa_1"
   viewBox="0 0 52 52"
   xml:space="preserve"
   sodipodi:docname="create-button.svg"
   inkscape:version="1.2.2 (b0a8486541, 2022-12-01)"
   xmlns:inkscape="http://www.inkscape.org/namespaces/inkscape"
   xmlns:sodipodi="http://sodipodi.sourceforge.net/DTD/sodipodi-0.dtd"
   xmlns="http://www.w3.org/2000/svg"
   xmlns:svg="http://www.w3.org/2000/svg"><defs
   id="defs7" /><sodipodi:namedview
   id="namedview5"
   bordercolor="#eeeeee"
   borderopacity="0"
   inkscape:showpageshadow="0"
   inkscape:pageopacity="0"
   inkscape:pagecheckerboard="0"
   inkscape:deskcolor="#505050"
   showgrid="false"
   inkscape:zoom="0.17104919"
   inkscape:cx="1052.3288"
   inkscape:cy="-891.55638"
   inkscape:window-width="1920"
   inkscape:window-height="1043"
   inkscape:window-x="0"
   inkscape:window-y="0"
   inkscape:window-maximized="1"
   inkscape:current-layer="Capa_1"
   pagecolor="#505050"
   showborder="false"
   borderlayer="false" />

<rect
   style="fill:#ffffff;stroke:#000000;stroke-width:0.013"
   id="rect165"
   width="29.442743"
   height="31.590063"
   x="11.365417"
   y="9.617424" /><path
   d="M 26,0 C 11.664,0 0,11.663 0,26 0,40.337 11.664,52 26,52 40.336,52 52,40.337 52,26 52,11.663 40.336,0 26,0 Z M 38.5,28 H 28 v 11 c 0,1.104 -0.896,2 -2,2 -1.104,0 -2,-0.896 -2,-2 V 28 H 13.5 c -1.104,0 -2,-0.896 -2,-2 0,-1.104 0.896,-2 2,-2 H 24 V 14 c 0,-1.104 0.896,-2 2,-2 1.104,0 2,0.896 2,2 v 10 h 10.5 c 1.104,0 2,0.896 2,2 0,1.104 -0.896,2 -2,2 z"
   id="path2" />
</svg>
