<?xml version="1.0" encoding="UTF-8" standalone="no"?>
<!-- Created with Inkscape (http://www.inkscape.org/) -->

<svg
   width="256"
   height="100"
   viewBox="0 0 67.733333 26.458348"
   version="1.1"
   id="svg5"
   xml:space="preserve"
   inkscape:version="1.2.2 (b0a8486541, 2022-12-01)"
   sodipodi:docname="action-logo.svg"
   xmlns:inkscape="http://www.inkscape.org/namespaces/inkscape"
   xmlns:sodipodi="http://sodipodi.sourceforge.net/DTD/sodipodi-0.dtd"
   xmlns="http://www.w3.org/2000/svg"
   xmlns:svg="http://www.w3.org/2000/svg"><sodipodi:namedview
     id="namedview7"
     pagecolor="#505050"
     bordercolor="#eeeeee"
     borderopacity="1"
     inkscape:showpageshadow="0"
     inkscape:pageopacity="0"
     inkscape:pagecheckerboard="0"
     inkscape:deskcolor="#505050"
     inkscape:document-units="mm"
     showgrid="true"
     inkscape:zoom="3.668406"
     inkscape:cx="139.29756"
     inkscape:cy="84.369069"
     inkscape:window-width="1920"
     inkscape:window-height="1043"
     inkscape:window-x="0"
     inkscape:window-y="0"
     inkscape:window-maximized="1"
     inkscape:current-layer="g955"><inkscape:grid
       type="xygrid"
       id="grid949"
       originx="0"
       originy="0" /></sodipodi:namedview><defs
     id="defs2"><rect
       x="69.481804"
       y="126.03883"
       width="213.45467"
       height="62.567673"
       id="rect240" /></defs><g
     inkscape:label="Layer 1"
     inkscape:groupmode="layer"
     id="layer1"><g
       id="g955"
       style="display:inline"
       transform="translate(-4.2840014,-0.16973573)"><path
         style="display:inline;fill:#ffffff;stroke-width:0.0677117"
         d="m 12.398846,22.230331 c 0.04921,-0.05063 0.363031,-0.644797 0.697377,-1.320374 l 0.6079,-1.228323 h 3.612157 3.612155 l 0.577174,1.201881 c 0.317445,0.661033 0.624614,1.255203 0.682596,1.320374 0.09414,0.105809 0.259052,0.118495 1.540234,0.118495 1.338982,0 1.442829,-0.0089 1.554897,-0.132694 0.07832,-0.08654 0.105391,-0.186638 0.07784,-0.287774 -0.02324,-0.08529 -1.790173,-3.735325 -3.926528,-8.111185 -3.83247,-7.8499846 -3.88705,-7.9563866 -4.092013,-7.9770146 -0.156432,-0.01574 -0.23283,0.0177 -0.30936,0.135423 -0.05589,0.08598 -1.84386,3.7288392 -3.973258,8.0952386 -3.8137941,7.820309 -3.8699731,7.941442 -3.7605401,8.108458 l 0.111093,0.169548 h 1.4494011 c 1.132755,0 1.468948,-0.02011 1.538877,-0.09205 z m -2.246732,-0.633936 c -2.03e-4,-0.06686 7.042748,-14.5222544 7.114601,-14.6024464 0.08212,-0.09165 0.960448,1.7084 0.917286,1.879883 -0.01983,0.07878 -1.418452,2.9769624 -3.108051,6.4404104 l -3.071997,6.29717 -0.92584,0.01884 c -0.509212,0.01037 -0.925911,-0.0049 -0.925999,-0.03386 z m 10.983194,-3.015072 c -0.822681,-1.68517 -1.937412,-3.969811 -2.47718,-5.076977 l -0.981393,-2.01303 0.449431,-0.915495 c 0.247186,-0.503522 0.469353,-0.9154954 0.493703,-0.9154954 0.05136,0 5.819542,11.8096084 5.819542,11.9147524 0,0.04494 -0.325227,0.07019 -0.904158,0.07019 h -0.904159 z m -7.055765,0.356124 c 0,-0.03689 0.205151,-0.478704 0.455891,-0.981816 l 0.455892,-0.914745 h 2.319602 2.319604 l 0.30752,0.612308 c 0.169137,0.336772 0.381057,0.77859 0.470934,0.981819 l 0.163414,0.369508 h -3.246429 c -2.098494,0 -3.246428,-0.02372 -3.246428,-0.06707 z m 1.28652,-2.642742 c 0,-0.03798 0.140924,-0.349661 0.313166,-0.692614 l 0.313166,-0.623552 0.326654,0.641832 c 0.17966,0.353005 0.328202,0.664684 0.330094,0.692615 0.0019,0.02794 -0.286028,0.05078 -0.639821,0.05078 -0.392099,0 -0.643259,-0.02697 -0.643259,-0.06906 z m 1.523213,-1.014915 -0.538607,-1.083984 0.480645,-0.964085 0.480644,-0.964084 0.761056,1.557157 c 0.418581,0.856437 0.863621,1.778068 0.988978,2.048066 l 0.227922,0.49091 h -0.931015 -0.931016 z"
         id="path295"
         sodipodi:nodetypes="sscccsssssssssscsssssscsssscsssscssscccsscsssscssssccccsscccc"
         inkscape:label="path295" /><g
         aria-label="ction
"
         id="text246"
         style="font-size:14.1111px;line-height:1.25;font-family:'Roboto Mono';-inkscape-font-specification:'Roboto Mono, Normal';stroke-width:0.264583"><path
           d="m 30.027993,21.281966 q -0.599447,0 -1.005968,-0.234267 -0.399631,-0.241156 -0.640788,-0.627007 -0.248047,-0.378961 -0.35829,-0.854384 -0.103353,-0.482313 -0.103353,-0.971517 v -0.289388 q 0,-0.482313 0.103353,-0.957736 0.110243,-0.475423 0.35829,-0.861274 0.248047,-0.378961 0.647678,-0.613227 0.406521,-0.241157 0.999078,-0.241157 0.38585,0 0.716579,0.130914 0.33762,0.130914 0.578776,0.35829 0.241157,0.227376 0.378961,0.530545 0.144694,0.296278 0.151584,0.633897 h 1.205783 q 0,-0.564996 -0.227376,-1.061089 -0.227376,-0.496094 -0.627007,-0.861274 -0.406521,-0.35829 -0.964627,-0.564996 -0.551215,-0.213596 -1.212673,-0.213596 -0.847494,0 -1.481391,0.303169 -0.633898,0.303168 -1.0542,0.813042 -0.427191,0.516764 -0.640787,1.192003 -0.213596,0.675239 -0.213596,1.412489 v 0.289388 q 0,0.744141 0.213596,1.41938 0.213596,0.668348 0.640787,1.178222 0.420302,0.516765 1.0542,0.819933 0.633897,0.303168 1.481391,0.303168 0.592556,0 1.136881,-0.199815 0.544325,-0.206706 0.964627,-0.551215 0.420301,-0.33762 0.668348,-0.785482 0.254937,-0.454753 0.261827,-0.950847 h -1.205783 q -0.0069,0.310059 -0.165364,0.578776 -0.151585,0.261828 -0.406522,0.454753 -0.254937,0.199816 -0.585666,0.310059 -0.323839,0.110243 -0.668348,0.110243 z"
           style="font-size:14.1111px;fill:#ffffff"
           id="path171" /><path
           d="m 38.337562,12.917274 h -1.281575 v 1.80523 h -1.956814 v 0.985297 h 1.956814 v 4.051433 q 0,0.689019 0.179145,1.178222 0.186035,0.482314 0.502984,0.785482 0.316949,0.310058 0.74414,0.454753 0.434082,0.137803 0.930176,0.137803 0.296278,0 0.592557,-0.02756 0.303168,-0.02756 0.571885,-0.08268 0.268718,-0.04823 0.496094,-0.117133 0.227376,-0.07579 0.385851,-0.172255 l -0.179145,-0.902615 q -0.117133,0.02756 -0.303169,0.0689 -0.179144,0.03445 -0.38585,0.0689 -0.213596,0.03445 -0.434082,0.06201 -0.220486,0.02067 -0.427192,0.02067 -0.282498,0 -0.537435,-0.0689 -0.248047,-0.0689 -0.440972,-0.241156 -0.192925,-0.165365 -0.303169,-0.447863 -0.110243,-0.282497 -0.110243,-0.716579 v -4.051433 h 2.838759 v -0.985297 h -2.838759 z"
           style="font-size:14.1111px;fill:#ffffff"
           id="path173" /><path
           d="m 43.987519,14.722504 v 1.109321 h 2.53559 v 5.243435 h -2.53559 v 1.102431 h 6.242513 V 21.07526 h -2.432238 v -6.352756 z m 2.370225,-1.956814 q 0,0.310059 0.186035,0.516764 0.192926,0.206706 0.578776,0.206706 0.378961,0 0.571886,-0.206706 0.192926,-0.206705 0.192926,-0.516764 0,-0.172255 -0.05512,-0.316949 -0.05512,-0.144694 -0.165364,-0.241157 -0.08957,-0.08957 -0.227377,-0.137803 -0.137804,-0.05512 -0.316949,-0.05512 -0.179144,0 -0.323838,0.05512 -0.137804,0.04823 -0.227377,0.137803 -0.110243,0.103353 -0.165364,0.248047 -0.04823,0.144694 -0.04823,0.310059 z"
           style="font-size:14.1111px;fill:#ffffff"
           id="path175" /><path
           d="m 51.897458,18.381195 v 0.151585 q 0,0.806152 0.234266,1.495171 0.234266,0.689019 0.675239,1.198893 0.434082,0.509874 1.061089,0.799262 0.633898,0.289388 1.42627,0.289388 0.785481,0 1.412489,-0.289388 0.627007,-0.289388 1.067979,-0.799262 0.434082,-0.509874 0.668349,-1.198893 0.234266,-0.689019 0.234266,-1.495171 v -0.151585 q 0,-0.806152 -0.234266,-1.495171 Q 58.208872,16.190115 57.77479,15.680241 57.333818,15.170366 56.69992,14.880978 56.072913,14.5847 55.280541,14.5847 q -0.785482,0 -1.412489,0.296278 -0.627007,0.289388 -1.061089,0.799263 -0.440973,0.509874 -0.675239,1.205783 -0.234266,0.689019 -0.234266,1.495171 z m 1.274685,0.151585 v -0.151585 q 0,-0.544325 0.130913,-1.040418 0.130914,-0.502984 0.399632,-0.881945 0.261827,-0.37896 0.654568,-0.599446 0.39274,-0.227377 0.923285,-0.227377 0.530545,0 0.923286,0.227377 0.399631,0.220486 0.668348,0.599446 0.261828,0.378961 0.392741,0.881945 0.137804,0.496093 0.137804,1.040418 v 0.151585 q 0,0.551215 -0.130914,1.054199 -0.130913,0.496094 -0.392741,0.875054 -0.268717,0.37896 -0.668348,0.599447 -0.392741,0.220486 -0.916395,0.220486 -0.530545,0 -0.930176,-0.220486 -0.399631,-0.220487 -0.661458,-0.599447 -0.268718,-0.37896 -0.399632,-0.875054 -0.130913,-0.502984 -0.130913,-1.054199 z"
           style="font-size:14.1111px;fill:#ffffff"
           id="path177" /><path
           d="m 60.723792,22.177691 h 1.274685 v -5.346789 q 0.130914,-0.241156 0.303168,-0.440972 0.179145,-0.199815 0.385851,-0.351399 0.254937,-0.172255 0.558106,-0.268718 0.303168,-0.103353 0.654568,-0.103353 0.406521,0 0.71658,0.09646 0.316948,0.09646 0.537434,0.310058 0.213596,0.213596 0.323839,0.558106 0.110243,0.344509 0.110243,0.840603 v 4.706001 h 1.274686 v -4.733562 q 0,-0.74414 -0.186035,-1.281575 -0.179145,-0.544325 -0.516765,-0.895725 -0.337619,-0.3514 -0.819932,-0.516764 -0.475424,-0.165365 -1.06109,-0.165365 -0.434082,0.0069 -0.826823,0.130914 -0.38585,0.117133 -0.71658,0.337619 -0.220486,0.144694 -0.420301,0.34451 -0.192926,0.192925 -0.35829,0.427192 l -0.08957,-1.102431 h -1.143771 z"
           style="font-size:14.1111px;fill:#ffffff"
           id="path179" /></g></g></g></svg>
