<?xml version="1.0" encoding="UTF-8" standalone="no"?>
<!-- Created with Inkscape (http://www.inkscape.org/) -->

<svg
   width="256"
   height="256"
   viewBox="0 0 67.733333 67.733333"
   version="1.1"
   id="svg5"
   xml:space="preserve"
   inkscape:version="1.2.2 (b0a8486541, 2022-12-01)"
   sodipodi:docname="action-icon.svg"
   xmlns:inkscape="http://www.inkscape.org/namespaces/inkscape"
   xmlns:sodipodi="http://sodipodi.sourceforge.net/DTD/sodipodi-0.dtd"
   xmlns="http://www.w3.org/2000/svg"
   xmlns:svg="http://www.w3.org/2000/svg"><sodipodi:namedview
     id="namedview7"
     pagecolor="#505050"
     bordercolor="#eeeeee"
     borderopacity="1"
     inkscape:showpageshadow="0"
     inkscape:pageopacity="0"
     inkscape:pagecheckerboard="0"
     inkscape:deskcolor="#505050"
     inkscape:document-units="mm"
     showgrid="false"
     inkscape:zoom="1.7553494"
     inkscape:cx="264.33484"
     inkscape:cy="156.37912"
     inkscape:window-width="1920"
     inkscape:window-height="1043"
     inkscape:window-x="0"
     inkscape:window-y="0"
     inkscape:window-maximized="1"
     inkscape:current-layer="layer1" /><defs
     id="defs2" /><g
     inkscape:label="Layer 1"
     inkscape:groupmode="layer"
     id="layer1"><path
       style="display:inline;fill:#ffffff;stroke-width:0.274542"
       d="m 14.619148,68.008302 c 0.199533,-0.205272 1.471939,-2.614376 2.827567,-5.353556 l 2.464777,-4.980329 h 14.64576 14.645756 l 2.340194,4.873119 c 1.287105,2.680208 2.532545,5.089313 2.767638,5.353555 0.381683,0.429011 1.050343,0.480448 6.244993,0.480448 5.429002,0 5.850058,-0.03593 6.304444,-0.538018 0.31754,-0.350878 0.427317,-0.756738 0.315602,-1.166803 C 67.081662,66.330894 59.917486,51.531559 51.255478,33.789307 35.716441,1.9609584 35.495141,1.5295442 34.664102,1.4459061 34.029839,1.3820707 33.720075,1.5176722 33.409782,1.9949888 33.183158,2.3436081 25.933711,17.113846 17.299908,34.817738 1.8365931,66.525771 1.6088122,67.016914 2.0525176,67.694095 l 0.4504348,0.687444 h 5.8767049 c 4.5928397,0 5.9559607,-0.08156 6.2394907,-0.373237 z M 5.5096044,65.437962 C 5.508784,65.166858 34.064955,6.5563895 34.356288,6.2312471 c 0.332949,-0.3715945 3.894208,6.9268369 3.719204,7.6221239 -0.0804,0.319415 -5.751219,12.070318 -12.601824,26.113128 l -12.455643,25.53235 -3.7538862,0.07641 C 7.1995007,65.617294 5.5099613,65.555497 5.5096044,65.437986 Z M 50.04179,53.213122 C 46.706167,46.380473 42.186405,37.117227 39.997878,32.62814 l -3.979133,-8.161981 1.822252,-3.711944 c 1.002234,-2.041569 1.903028,-3.711943 2.001756,-3.711943 0.208224,0 23.595768,47.882942 23.595768,48.309258 0,0.18223 -1.318657,0.28459 -3.665977,0.28459 h -3.665981 z m -28.608128,1.443932 c 0,-0.14957 0.8318,-1.940943 1.848444,-3.980846 l 1.848446,-3.708902 h 9.405002 9.405007 l 1.246865,2.482649 c 0.685776,1.365464 1.545021,3.156849 1.909435,3.980858 l 0.662576,1.498196 H 34.596548 c -8.508503,0 -13.162886,-0.09617 -13.162886,-0.271955 z m 5.21629,-10.715195 c 0,-0.154013 0.571389,-1.417728 1.269755,-2.808258 l 1.269754,-2.528237 1.324444,2.602358 c 0.728444,1.431285 1.330719,2.695011 1.33839,2.808258 0.0077,0.113295 -1.159719,0.205906 -2.594199,0.205906 -1.589798,0 -2.608144,-0.109342 -2.608144,-0.280027 z m 6.175982,-4.11505 -2.183822,-4.395094 1.94881,-3.908955 1.948808,-3.908951 3.085757,6.313612 c 1.697169,3.472488 3.501615,7.209306 4.009888,8.304037 l 0.924127,1.990428 H 38.78463 35.009754 Z"
       id="path295"
       sodipodi:nodetypes="sscccsssssssssscsssssscsssscsssscssscccsscsssscssssccccsscccc"
       inkscape:label="path295" /></g></svg>
